<svg width="122" height="41" viewBox="0 0 122 41" fill="none" xmlns="http://www.w3.org/2000/svg">
<path d="M23.7618 23.1832H21.4113L19.7778 20.083H11.1389L9.50547 23.1832H7.40039L14.379 10.5896H16.6566L23.7618 23.1832ZM18.9112 18.4762L15.4718 12.0339L12.0323 18.4762H18.9112Z" fill="#231F20"/>
<path d="M41.0893 20.2078C41.0893 21.3647 40.8861 22.1473 40.4835 22.5631C40.077 22.979 39.291 23.187 38.1177 23.187H30.9665C29.8124 23.187 29.0225 22.979 28.6007 22.5631C28.1789 22.1473 27.968 21.3647 27.968 20.2078V13.5688C27.968 12.4157 28.1789 11.6293 28.6007 11.2134C29.0225 10.7976 29.8085 10.5896 30.9665 10.5896H38.1177C39.5709 10.5896 40.4681 10.9564 40.8171 11.686C40.9973 12.0755 41.0893 13.1 41.0893 14.7598L38.9612 15.1492V12.2947H30.0999V21.4214H38.9612V18.272L41.0893 18.7106V20.2078Z" fill="#231F20"/>
<path d="M59.3526 23.1832H46.9521V10.5934H59.2529V12.2758H49.0802V15.7881H55.292V17.4478H49.0802V21.4516H59.3526V23.1832Z" fill="#231F20"/>
<path d="M1.4494 18.2191C1.4494 20.083 1.82134 21.8675 2.49619 23.4932L1.54143 24.2115C0.552153 22.117 0 19.7768 0 17.3155C0 11.1114 3.5008 5.7163 8.66189 2.94882L9.68184 5.53105C4.8275 7.74277 1.4494 12.5934 1.4494 18.2191Z" fill="#0072BC"/>
<path d="M26.7641 26.8581L28.5548 28.6237C25.5371 31.7314 21.2847 33.6634 16.5799 33.6634C12.4733 33.6634 8.7156 32.1927 5.82446 29.7541L6.71404 29.0849C9.14888 31.0282 12.2471 32.1927 15.6252 32.1927C20.1421 32.1927 24.1682 30.1095 26.7641 26.8581Z" fill="#0072BC"/>
<path opacity="0.8" d="M26.7641 40.9677L28.5548 39.2021C25.5332 36.0944 21.2847 34.1624 16.5799 34.1624C12.4733 34.1624 8.7156 35.6331 5.82446 38.0717L6.71404 38.7409C9.14888 36.7976 12.2471 35.6331 15.6252 35.6331C20.1421 35.6294 24.1682 37.7163 26.7641 40.9677Z" fill="url(#paint0_linear_9_292)"/>
<path d="M12.4734 4.59345L11.3652 1.79194C13.0064 1.25886 14.7587 0.967743 16.58 0.967743C21.7373 0.967743 26.3462 3.29288 29.3869 6.93371L26.3309 9.06603C23.7312 6.11329 19.9006 4.24562 15.6214 4.24562C14.5401 4.24562 13.4857 4.3666 12.4734 4.59345Z" fill="#0072BC"/>
<path d="M68.96 13.97C69.9667 13.97 70.7367 14.1533 71.27 14.52C71.81 14.8867 72.08 15.46 72.08 16.24C72.08 16.6467 72.0067 16.9967 71.86 17.29C71.72 17.5767 71.5133 17.8133 71.24 18C70.9667 18.18 70.6333 18.3133 70.24 18.4C69.8467 18.4867 69.3967 18.53 68.89 18.53H68.26V20.97H67V14.14C67.2933 14.0733 67.6167 14.03 67.97 14.01C68.33 13.9833 68.66 13.97 68.96 13.97ZM69.05 15.06C68.73 15.06 68.4667 15.07 68.26 15.09V17.45H68.87C69.4767 17.45 69.9433 17.3667 70.27 17.2C70.5967 17.0267 70.76 16.7033 70.76 16.23C70.76 16.0033 70.7167 15.8133 70.63 15.66C70.5433 15.5067 70.4233 15.3867 70.27 15.3C70.1167 15.2133 69.9333 15.1533 69.72 15.12C69.5133 15.08 69.29 15.06 69.05 15.06Z" fill="#0072BC"/>
<path d="M77.8605 17.5C77.8605 17.88 77.9071 18.2267 78.0005 18.54C78.0938 18.8467 78.2271 19.11 78.4005 19.33C78.5805 19.5433 78.7971 19.71 79.0505 19.83C79.3038 19.95 79.5905 20.01 79.9105 20.01C80.2238 20.01 80.5071 19.95 80.7605 19.83C81.0138 19.71 81.2271 19.5433 81.4005 19.33C81.5805 19.11 81.7171 18.8467 81.8105 18.54C81.9038 18.2267 81.9505 17.88 81.9505 17.5C81.9505 17.12 81.9038 16.7767 81.8105 16.47C81.7171 16.1567 81.5805 15.8933 81.4005 15.68C81.2271 15.46 81.0138 15.29 80.7605 15.17C80.5071 15.05 80.2238 14.99 79.9105 14.99C79.5905 14.99 79.3038 15.05 79.0505 15.17C78.7971 15.29 78.5805 15.46 78.4005 15.68C78.2271 15.9 78.0938 16.1633 78.0005 16.47C77.9071 16.7767 77.8605 17.12 77.8605 17.5ZM83.2705 17.5C83.2705 18.0933 83.1805 18.6167 83.0005 19.07C82.8271 19.5233 82.5871 19.9033 82.2805 20.21C81.9805 20.51 81.6271 20.7367 81.2205 20.89C80.8138 21.0433 80.3805 21.12 79.9205 21.12C79.4605 21.12 79.0238 21.0433 78.6105 20.89C78.2038 20.7367 77.8471 20.51 77.5405 20.21C77.2405 19.9033 77.0005 19.5233 76.8205 19.07C76.6405 18.6167 76.5505 18.0933 76.5505 17.5C76.5505 16.9067 76.6405 16.3867 76.8205 15.94C77.0005 15.4867 77.2438 15.1067 77.5505 14.8C77.8638 14.4933 78.2238 14.2633 78.6305 14.11C79.0371 13.9567 79.4671 13.88 79.9205 13.88C80.3738 13.88 80.8038 13.9567 81.2105 14.11C81.6171 14.2633 81.9705 14.4933 82.2705 14.8C82.5771 15.1067 82.8205 15.4867 83.0005 15.94C83.1805 16.3867 83.2705 16.9067 83.2705 17.5Z" fill="#0072BC"/>
<path d="M90.1627 13.97C91.1627 13.97 91.9261 14.1533 92.4527 14.52C92.9861 14.8867 93.2527 15.4467 93.2527 16.2C93.2527 17.14 92.7894 17.7767 91.8627 18.11C91.9894 18.2633 92.1327 18.45 92.2927 18.67C92.4527 18.89 92.6161 19.13 92.7827 19.39C92.9494 19.6433 93.1094 19.9067 93.2627 20.18C93.4161 20.4467 93.5527 20.71 93.6727 20.97H92.2627C92.1361 20.73 91.9994 20.49 91.8527 20.25C91.7061 20.0033 91.5561 19.7667 91.4027 19.54C91.2561 19.3067 91.1094 19.09 90.9627 18.89C90.8161 18.6833 90.6794 18.5 90.5527 18.34C90.4594 18.3467 90.3794 18.35 90.3127 18.35C90.2461 18.35 90.1827 18.35 90.1227 18.35H89.5127V20.97H88.2527V14.14C88.5594 14.0733 88.8861 14.03 89.2327 14.01C89.5794 13.9833 89.8894 13.97 90.1627 13.97ZM90.2527 15.06C89.9861 15.06 89.7394 15.07 89.5127 15.09V17.33H90.0627C90.3694 17.33 90.6394 17.3133 90.8727 17.28C91.1061 17.2467 91.2994 17.1867 91.4527 17.1C91.6127 17.0133 91.7327 16.8967 91.8127 16.75C91.8927 16.6033 91.9327 16.4167 91.9327 16.19C91.9327 15.9767 91.8927 15.7967 91.8127 15.65C91.7327 15.5033 91.6161 15.3867 91.4627 15.3C91.3161 15.2133 91.1394 15.1533 90.9327 15.12C90.7261 15.08 90.4994 15.06 90.2527 15.06Z" fill="#0072BC"/>
<path d="M103.079 14.04V15.13H100.949V20.97H99.6792V15.13H97.5492V14.04H103.079Z" fill="#0072BC"/>
<path d="M111.674 20.97C111.58 20.6967 111.484 20.4267 111.384 20.16C111.284 19.8933 111.187 19.62 111.094 19.34H108.174C108.08 19.62 107.984 19.8967 107.884 20.17C107.79 20.4367 107.697 20.7033 107.604 20.97H106.294C106.554 20.23 106.8 19.5467 107.034 18.92C107.267 18.2933 107.494 17.7 107.714 17.14C107.94 16.58 108.164 16.0467 108.384 15.54C108.604 15.0333 108.83 14.5333 109.064 14.04H110.254C110.487 14.5333 110.714 15.0333 110.934 15.54C111.154 16.0467 111.374 16.58 111.594 17.14C111.82 17.7 112.05 18.2933 112.284 18.92C112.524 19.5467 112.774 20.23 113.034 20.97H111.674ZM109.634 15.38C109.48 15.7333 109.304 16.1633 109.104 16.67C108.91 17.1767 108.707 17.7267 108.494 18.32H110.774C110.56 17.7267 110.354 17.1733 110.154 16.66C109.954 16.1467 109.78 15.72 109.634 15.38Z" fill="#0072BC"/>
<path d="M121.89 19.88V20.97H117.51V14.04H118.77V19.88H121.89Z" fill="#0072BC"/>
<defs>
<linearGradient id="paint0_linear_9_292" x1="17.1887" y1="34.1625" x2="17.1887" y2="38.0761" gradientUnits="userSpaceOnUse">
<stop offset="5.43435e-07" stop-color="#0072BC"/>
<stop offset="1" stop-color="#0072BC" stop-opacity="0"/>
</linearGradient>
</defs>
</svg>
